# xmcd CD database file
#
# Track frame offsets:
#	150
#	17331
#	36126
#	49287
#	67159
#	92379
#	110693
#	126036
#	142159
#	152803
#	174077
#	190353
#
# Disc length: 2944 seconds
#
# Revision: 0
# Processed by: cddbd v1.5.2PL0 Copyright (c) Steve Scherf et al.
# Submitted via: CDex 1.51
#
DISCID=a10b7e0c
DTITLE=Cek Deluxe - Royal Rumble
DYEAR=2010
DGENRE=Blues
TTITLE0=Rock 'n' Roll Pope
TTITLE1=Cek Republic
TTITLE2=Memphis (Wherever Street You'll Walk)
TTITLE3=Vampires
TTITLE4=Sugar Cane
TTITLE5=Rumbling In My Mind (Slippin' Out)
TTITLE6=Diggin' Your Grave
TTITLE7=Postman Blues
TTITLE8=Wasting My Time
TTITLE9=Il Cane Di Lazzaro
TTITLE10=Someone Else's Pie (Reprise)
TTITLE11=Too Much Fun
EXTD=YEAR: 2010
EXTT0=
EXTT1=
EXTT2=
EXTT3=
EXTT4=
EXTT5=
EXTT6=
EXTT7=
EXTT8=
EXTT9=
EXTT10=
EXTT11=
PLAYORDER=
